<svg xmlns="http://www.w3.org/2000/svg" xmlns:xlink="http://www.w3.org/1999/xlink" width="60.148" height="63" viewBox="0 0 60.148 63">
  <defs>
    <filter id="前面オブジェクトで型抜き_1" x="0" y="0" width="60.148" height="63" filterUnits="userSpaceOnUse">
      <feOffset dy="3" input="SourceAlpha"/>
      <feGaussianBlur stdDeviation="3" result="blur"/>
      <feFlood flood-opacity="0.161"/>
      <feComposite operator="in" in2="blur"/>
      <feComposite in="SourceGraphic"/>
    </filter>
  </defs>
  <g id="グループ_8" data-name="グループ 8" transform="translate(-50 0.063)">
    <g transform="matrix(1, 0, 0, 1, 50, -0.06)" filter="url(#前面オブジェクトで型抜き_1)">
      <path id="前面オブジェクトで型抜き_1-2" data-name="前面オブジェクトで型抜き 1" d="M22.969,45a23.236,23.236,0,0,1-8.941-1.768,22.925,22.925,0,0,1-7.3-4.822A22.405,22.405,0,0,1,1.8,31.258a22.141,22.141,0,0,1,.838-19.247A22.842,22.842,0,0,1,9.68,4.146v36.6H26.535a25.018,25.018,0,0,0,8.906-1.533,18.276,18.276,0,0,0,6.706-4.33A23.061,23.061,0,0,1,22.969,45ZM26.11,33.7H18.266v-23H26.11a12.673,12.673,0,0,1,8.858,3.087A11.152,11.152,0,0,1,38.3,22.2a11.152,11.152,0,0,1-3.332,8.414A12.673,12.673,0,0,1,26.11,33.7ZM40.661,8.152c-3.627-2.946-8.512-4.5-14.126-4.5H10.424a23.321,23.321,0,0,1,30.239,4.5Z" transform="translate(9 6)" fill="#fff"/>
    </g>
  </g>
</svg>
