<?xml version="1.0" encoding="utf-8"?>
<!-- Generator: Adobe Illustrator 15.1.0, SVG Export Plug-In . SVG Version: 6.00 Build 0)  -->
<!DOCTYPE svg PUBLIC "-//W3C//DTD SVG 1.1//EN" "http://www.w3.org/Graphics/SVG/1.1/DTD/svg11.dtd">
<svg version="1.1" id="レイヤー_1" xmlns="http://www.w3.org/2000/svg" xmlns:xlink="http://www.w3.org/1999/xlink" x="0px"
	 y="0px" width="400px" height="225.1337891px" viewBox="0 0 400 225.1337891" style="enable-background:new 0 0 400 225.1337891;"
	 xml:space="preserve">
<style type="text/css">
<![CDATA[
	.st0{fill:#FF2A2A;}
]]>
</style>
<g>
	<path class="st0" d="M0,0h64.71875c32.6376953,0,40.9824219,20.3974609,40.9824219,34.1210938
		c0,19.1005859-10.7558594,24.4785156-16.3183594,27.2597656c16.3183594,6.1201172,20.5839844,19.1005859,20.5839844,32.2666016
		c0,10.5703125-4.4511719,20.5839844-11.4970703,27.4453125c-7.6035156,7.4179688-14.8359375,12.0537109-42.0947266,12.0537109H0V0z
		 M26.7041016,52.1083984h32.6367188c10.9414063,0,19.6572266-4.2646484,19.6572266-14.8349609
		c0-10.9404297-7.7890625-14.2783203-20.3984375-14.2783203H26.7041016V52.1083984z M26.7041016,110.1513672h34.1201172
		c13.5380859,0,21.3261719-5.9335938,21.3261719-19.4707031c0-11.6826172-10.0136719-16.1337891-20.0273438-16.1337891H26.7041016
		V110.1513672z"/>
	<path class="st0" d="M145.0166016,0h64.71875c32.6376953,0,40.9824219,20.3974609,40.9824219,34.1210938
		c0,19.1005859-10.7558594,24.4785156-16.3183594,27.2597656c16.3183594,6.1201172,20.5839844,19.1005859,20.5839844,32.2666016
		c0,10.5703125-4.4511719,20.5839844-11.4970703,27.4453125c-7.6035156,7.4179688-14.8359375,12.0537109-42.0947266,12.0537109
		h-56.375V0z M171.7207031,52.1083984h32.6367188c10.9414063,0,19.6572266-4.2646484,19.6572266-14.8349609
		c0-10.9404297-7.7890625-14.2783203-20.3984375-14.2783203h-31.8955078V52.1083984z M171.7207031,110.1513672h34.1201172
		c13.5380859,0,21.3261719-5.9335938,21.3261719-19.4707031c0-11.6826172-10.0136719-16.1337891-20.0273438-16.1337891h-35.4189453
		V110.1513672z"/>
	<path class="st0" d="M290.0332031,0h64.71875c32.6376953,0,40.9824219,20.3974609,40.9824219,34.1210938
		c0,19.1005859-10.7558594,24.4785156-16.3173828,27.2597656C395.734375,67.5009766,400,80.4814453,400,93.6474609
		c0,10.5703125-4.4511719,20.5839844-11.4970703,27.4453125c-7.6035156,7.4179688-14.8359375,12.0537109-42.0947266,12.0537109
		h-56.375V0z M316.7373047,52.1083984h32.6367188c10.9414063,0,19.6572266-4.2646484,19.6572266-14.8349609
		c0-10.9404297-7.7890625-14.2783203-20.3984375-14.2783203h-31.8955078V52.1083984z M316.7373047,110.1513672h34.1210938
		c13.5371094,0,21.3251953-5.9335938,21.3251953-19.4707031c0-11.6826172-10.0126953-16.1337891-20.0273438-16.1337891h-35.4189453
		V110.1513672z"/>
</g>
<g>
	<path class="st0" d="M60.0644531,220.5595703c-0.7070313,0.6396484-1.3369141,1.5908203-1.8886719,2.8505859
		c-0.3769531,0.8173828-0.7412109,1.2265625-1.09375,1.2265625c-0.2226563,0-0.5419922-0.0664063-0.9619141-0.1992188
		c-6.1875-1.4589844-11.6796875-3.7900391-16.4755859-6.9941406c-4.7070313-3.1601563-8.3525391-6.9394531-10.9384766-11.3369141
		c-0.8398438,2.0332031-1.7685547,3.7792969-2.7832031,5.2373047c-4.2001953,5.9892578-11.5361328,10.3535156-22.0117188,13.09375
		c-0.5292969,0.0878906-0.8398438,0.1328125-0.9277344,0.1328125c-0.3759766,0-0.7402344-0.3652344-1.09375-1.09375
		C1.4033203,222.6357422,0.7734375,221.8300781,0,221.0566406c11.2255859-2.3642578,18.8505859-6.4638672,22.8720703-12.2978516
		c0.8837891-1.28125,1.6015625-2.7070313,2.1542969-4.2763672H10.0439453l-9.0488281,0.1328125
		c-0.3544922,0-0.53125-0.1767578-0.53125-0.53125v-2.8837891c0-0.3535156,0.1767578-0.5302734,0.53125-0.5302734
		l8.0878906,0.1328125v-9.4140625l-0.1328125-5.8017578c0-0.3525391,0.1767578-0.5292969,0.5302734-0.5292969l9.5800781,0.1318359
		h8.2861328c0-3.2255859-0.1318359-5.5908203-0.3964844-7.09375c1.0605469,0.0449219,2.4521484,0.1552734,4.1767578,0.3320313
		c0.6396484,0.0664063,0.9609375,0.2871094,0.9609375,0.6630859c0,0.1103516-0.1113281,0.4970703-0.3320313,1.1601563
		c-0.1982422,0.4199219-0.3310547,2.0664063-0.3974609,4.9384766h8.6181641l9.5146484-0.1318359
		c0.3525391,0,0.5292969,0.1767578,0.5292969,0.5292969l-0.1328125,5.8017578v9.4140625L58.375,200.6699219
		c0.3525391,0,0.5292969,0.1767578,0.5292969,0.5302734v2.8837891c0,0.3544922-0.1767578,0.53125-0.5292969,0.53125
		l-9.0166016-0.1328125H31.8886719C37.4355469,212.9462891,46.828125,218.3056641,60.0644531,220.5595703z M59.1367188,174.4160156
		c0,0.3544922-0.1884766,0.53125-0.5644531,0.53125l-8.8173828-0.1328125h-9.3466797l0.1328125,5.5029297
		c0,0.3535156-0.1884766,0.5302734-0.5644531,0.5302734h-2.9824219c-0.3544922,0-0.53125-0.1767578-0.53125-0.5302734
		l0.1328125-5.5029297H22.3417969l0.1328125,5.5029297c0,0.3535156-0.1777344,0.5302734-0.5302734,0.5302734h-3.0830078
		c-0.3095703,0-0.4638672-0.1767578-0.4638672-0.5302734l0.1318359-5.5029297H9.4472656l-8.8505859,0.1328125
		c-0.3535156,0-0.5302734-0.1767578-0.5302734-0.53125v-2.9492188c0-0.3535156,0.1767578-0.5302734,0.5302734-0.5302734
		l8.8505859,0.1318359h9.0820313c0-3.5791016-0.1542969-5.9550781-0.4638672-7.1259766
		c1.3925781,0.0654297,2.8183594,0.1767578,4.2763672,0.3310547c0.4863281,0.0888672,0.7294922,0.2978516,0.7294922,0.6298828
		c0,0.1767578-0.1113281,0.4638672-0.3310547,0.8613281c-0.265625,0.5527344-0.3984375,2.3203125-0.3984375,5.3037109h14.2539063
		c0-3.6240234-0.1552734-6.0214844-0.4638672-7.1923828c1.6796875,0.0664063,3.09375,0.1982422,4.2431641,0.3974609
		c0.5068359,0.0888672,0.7617188,0.2978516,0.7617188,0.6298828c0,0.2431641-0.1103516,0.5302734-0.3310547,0.8613281
		c-0.2646484,0.4863281-0.3974609,2.1445313-0.3974609,4.9726563v0.3310547h9.3466797l8.8173828-0.1318359
		c0.3759766,0,0.5644531,0.1767578,0.5644531,0.5302734V174.4160156z M27.2802734,188.8027344H13.09375v12h13.0927734
		C26.8496094,197.7314453,27.2148438,193.7314453,27.2802734,188.8027344z M45.8115234,200.8027344v-12H31.2919922
		c-0.1777344,5.2597656-0.5419922,9.2597656-1.09375,12H45.8115234z"/>
	<path class="st0" d="M129.9404297,188.3056641c-0.8173828,0.8183594-1.46875,1.7236328-1.9550781,2.71875
		c-0.3974609,0.7285156-0.6953125,1.09375-0.8945313,1.09375c-0.1552734,0-0.4755859-0.1328125-0.9609375-0.3984375
		c-12.3320313-5.4580078-21.8339844-12.9716797-28.5087891-22.5400391
		c-6.2529297,9.1484375-15.3476563,16.7060547-27.2802734,22.6728516c-0.4863281,0.265625-0.828125,0.3984375-1.0273438,0.3984375
		c-0.2207031,0-0.5205078-0.3427734-0.8955078-1.0283203c-0.5751953-0.9492188-1.2705078-1.7119141-2.0878906-2.2871094
		c6.4296875-2.6738281,12.1865234-6.1328125,17.2695313-10.375c4.2646484-3.5800781,7.7236328-7.4589844,10.3759766-11.6357422
		c0.8388672-1.4580078,1.4257813-2.7177734,1.7558594-3.7783203c1.6796875,0.2207031,3.0947266,0.5078125,4.2441406,0.8613281
		c0.640625,0.1992188,0.9609375,0.4755859,0.9609375,0.8291016c0,0.3320313-0.1552734,0.5751953-0.4638672,0.7294922
		c-0.0664063,0.0439453-0.3105469,0.2099609-0.7294922,0.4970703c4.2421875,5.6796875,9.0605469,10.3974609,14.453125,14.1542969
		C118.6826172,183.3554688,123.9296875,186.0517578,129.9404297,188.3056641z M124.7705078,201.9296875
		c0,0.3544922-0.1777344,0.5302734-0.5302734,0.5302734l-9.3808594-0.1318359H94.1083984
		c-2.3203125,5.8115234-4.6748047,11.0380859-7.0615234,15.6787109c7.625-0.5078125,15.9882813-1.2705078,25.09375-2.2871094
		c-1.8554688-2.3867188-3.9785156-4.8837891-6.3642578-7.4921875c-0.1552734-0.1542969-0.2324219-0.2861328-0.2324219-0.3974609
		c0-0.1542969,0.2099609-0.3310547,0.6298828-0.5302734l1.9882813-1.09375
		c0.265625-0.1328125,0.4648438-0.1992188,0.5966797-0.1992188c0.1328125,0,0.265625,0.0664063,0.3984375,0.1992188
		c4.0878906,4.1328125,8.4414063,9.4912109,13.0605469,16.0771484c0.1103516,0.1533203,0.1660156,0.2861328,0.1660156,0.3974609
		c0,0.1982422-0.1777344,0.4091797-0.5302734,0.6298828l-2.0888672,1.4257813
		c-0.3759766,0.2197266-0.6298828,0.3310547-0.7626953,0.3310547c-0.1542969,0-0.3310547-0.1328125-0.5302734-0.3974609
		c-1.8115234-2.7626953-3.1044922-4.6630859-3.8779297-5.7021484c-11.3154297,1.4804688-23.7783203,2.71875-37.3916016,3.7128906
		c-1.4580078,0.1542969-2.3203125,0.3642578-2.5859375,0.6298828c-0.265625,0.2646484-0.5634766,0.3974609-0.8945313,0.3974609
		c-0.3320313,0-0.5742188-0.2431641-0.7285156-0.7294922c-0.3769531-1.2148438-0.71875-2.7402344-1.0283203-4.5742188
		c1.1054688,0.0664063,2.2314453,0.0996094,3.3808594,0.0996094c1.1943359,0,2.5302734-0.0332031,4.0117188-0.0996094
		c0.5966797,0,1.5683594-0.0439453,2.9160156-0.1318359c2.8720703-5.3925781,5.2490234-10.7070313,7.1279297-15.9443359h-8.1220703
		l-9.3144531,0.1318359c-0.3974609,0-0.5966797-0.1757813-0.5966797-0.5302734v-3.0166016
		c0-0.3535156,0.1992188-0.5302734,0.5966797-0.5302734l9.3144531,0.1328125h33.5800781l9.3808594-0.1328125
		c0.3525391,0,0.5302734,0.1767578,0.5302734,0.5302734V201.9296875z M111.9414063,189.4990234
		c0,0.3535156-0.1767578,0.5302734-0.5302734,0.5302734l-7.9550781-0.1318359H92.4501953l-7.9228516,0.1318359
		c-0.375,0-0.5634766-0.1767578-0.5634766-0.5302734v-2.9501953c0-0.3535156,0.1884766-0.5302734,0.5634766-0.5302734
		l7.9228516,0.1328125h11.0058594l7.9550781-0.1328125c0.3535156,0,0.5302734,0.1767578,0.5302734,0.5302734V189.4990234z"/>
	<path class="st0" d="M159.4765625,179.7871094c0,0.3974609-0.1884766,0.5966797-0.5644531,0.5966797l-7.1259766-0.1328125
		h-8.3535156l-7.1279297,0.1328125c-0.3535156,0-0.5292969-0.1992188-0.5292969-0.5966797V176.96875
		c0-0.3525391,0.1757813-0.5302734,0.5292969-0.5302734l7.1279297,0.1328125h8.3535156l7.1259766-0.1328125
		c0.3759766,0,0.5644531,0.1777344,0.5644531,0.5302734V179.7871094z M157.5869141,223.3769531
		c0,0.3525391-0.1884766,0.5302734-0.5634766,0.5302734h-2.7851563c-0.3535156,0-0.5302734-0.1777344-0.5302734-0.5302734
		v-2.2539063H142.703125v3.4472656c0,0.375-0.1767578,0.5634766-0.5302734,0.5634766h-2.7841797
		c-0.3759766,0-0.5644531-0.1884766-0.5644531-0.5634766l0.1328125-9.9775391v-4.1445313l-0.1328125-5.8994141
		c0-0.3535156,0.1777344-0.53125,0.53125-0.53125l6,0.1328125h5.6357422l6.0644531-0.1328125
		c0.3535156,0,0.53125,0.1777344,0.53125,0.53125l-0.1328125,4.8388672v4.4091797L157.5869141,223.3769531z
		 M157.8515625,170.4052734c0,0.3544922-0.1875,0.53125-0.5625,0.53125l-5.9677734-0.1328125h-5.8339844l-5.9658203,0.1328125
		c-0.3769531,0-0.5644531-0.1767578-0.5644531-0.53125V167.6875c0-0.3535156,0.1875-0.5302734,0.5644531-0.5302734
		l5.9658203,0.1328125h5.8339844l5.9677734-0.1328125c0.375,0,0.5625,0.1767578,0.5625,0.5302734V170.4052734z
		 M156.890625,189.0019531c0,0.3535156-0.2099609,0.5302734-0.6298828,0.5302734l-5.5351563-0.1328125h-5.1054688
		l-5.6357422,0.1328125c-0.3535156,0-0.5292969-0.1767578-0.5292969-0.5302734v-2.6513672
		c0-0.3535156,0.1757813-0.53125,0.5292969-0.53125l5.6357422,0.1328125h5.1054688l5.5351563-0.1328125
		c0.4199219,0,0.6298828,0.1777344,0.6298828,0.53125V189.0019531z M156.890625,198.0185547
		c0,0.3759766-0.2099609,0.5634766-0.6298828,0.5634766l-5.5351563-0.1328125h-5.1054688l-5.6357422,0.1328125
		c-0.3535156,0-0.5292969-0.1875-0.5292969-0.5634766v-2.6523438c0-0.3525391,0.1757813-0.5302734,0.5292969-0.5302734
		l5.6357422,0.1328125h5.1054688l5.5351563-0.1328125c0.4199219,0,0.6298828,0.1777344,0.6298828,0.5302734V198.0185547z
		 M153.7080078,217.8076172v-10.3417969H142.703125v10.3417969H153.7080078z M196.2041016,188.7373047
		c0,0.3535156-0.1875,0.5292969-0.5634766,0.5292969l-9.0820313-0.1318359h-7.0605469v11.2041016h3.9443359l8.0878906-0.1328125
		c0.3535156,0,0.53125,0.1767578,0.53125,0.5302734l-0.1328125,6.3974609v5.7675781l0.1328125,11.2705078
		c0,0.3535156-0.1777344,0.53125-0.53125,0.53125h-3.0820313c-0.3535156,0-0.53125-0.1777344-0.53125-0.53125v-2.9833984
		h-20.2197266v3.3818359c0,0.375-0.1777344,0.5634766-0.53125,0.5634766h-3.0820313
		c-0.3535156,0-0.53125-0.1884766-0.53125-0.5634766l0.1328125-11.4697266v-5.0712891l-0.1328125-7.2929688
		c0-0.3535156,0.1777344-0.5302734,0.53125-0.5302734l8.0888672,0.1328125h3.2470703v-11.2041016h-5.7001953l-9.0166016,0.1318359
		c-0.3544922,0-0.5302734-0.1757813-0.5302734-0.5292969v-2.9511719c0-0.3525391,0.1757813-0.5302734,0.5302734-0.5302734
		l9.0166016,0.1328125h5.7001953v-11.5019531c-3.6679688,0.8173828-7.4472656,1.4912109-11.3359375,2.0214844
		c-0.3095703,0.0449219-0.53125,0.0664063-0.6640625,0.0664063c-0.3300781,0-0.6289063-0.3427734-0.8945313-1.0273438
		c-0.375-0.9941406-0.9169922-1.8447266-1.6230469-2.5527344c9.4570313-0.8837891,17.6005859-2.6962891,24.4296875-5.4365234
		c1.7451172-0.7285156,3.0820313-1.4794922,4.0107422-2.2539063c1.1494141,0.9941406,2.0761719,1.9453125,2.7851563,2.8515625
		c0.3085938,0.3759766,0.4638672,0.7177734,0.4638672,1.0273438c0,0.3535156-0.3652344,0.5302734-1.09375,0.5302734
		c-0.5966797,0-1.2929688,0.1650391-2.0888672,0.4970703c-3.3818359,1.2597656-6.6855469,2.3427734-9.9111328,3.2480469v12.5302734
		h7.0605469l9.0820313-0.1328125c0.3759766,0,0.5634766,0.1777344,0.5634766,0.5302734V188.7373047z M187.9169922,217.5751953
		v-13.6230469h-20.2197266v13.6230469H187.9169922z"/>
	<path class="st0" d="M229.5185547,200.7363281c-5.9228516,9.1269531-14,16.2763672-24.2314453,21.4472656l-2.9833984-3.9111328
		c9.4794922-4.9501953,16.8730469-11.3037109,22.1757813-19.0615234c4.5527344-6.6728516,7.8681641-14.828125,9.9453125-24.4628906
		h-28.5078125v-4.5410156h35.203125c-1.9882813,10.0332031-4.9726563,18.6953125-8.9501953,25.9882813
		c6.1435547,7.3808594,11.4140625,14.9824219,15.8115234,22.8056641l-5.0048828,3.1826172
		C239.3964844,214.8242188,234.9101563,207.6757813,229.5185547,200.7363281z"/>
	<path class="st0" d="M271.5498047,177.2011719c-3.1816406,7.6025391-7.3476563,14.1103516-12.4960938,19.5244141
		l-3.8779297-2.9833984c7.2480469-7.6904297,12.1308594-17.1044922,14.6503906-28.2421875l5.3710938,0.8291016
		c-0.4648438,1.7451172-1.1162109,3.8671875-1.9560547,6.3642578h23.5351563
		c-2.1210938,15.6015625-6.4414063,27.4912109-12.9609375,35.6669922
		c-5.0605469,6.3427734-12.2099609,11.359375-21.4472656,15.0498047l-2.9833984-3.6464844
		c9.6132813-3.8232422,16.8613281-9.1826172,21.7460938-16.0771484c4.7070313-6.6298828,7.8886719-15.4580078,9.546875-26.4853516
		H271.5498047z"/>
	<path class="st0" d="M305.3291016,192.3173828h36.9267578v5.0380859h-36.9267578V192.3173828z"/>
	<path class="st0" d="M364.4316406,168.4833984c0,12.8613281-0.2207031,22.1425781-0.6621094,27.8447266
		c-0.3759766,4.7734375-1.0166016,8.5742188-1.921875,11.4023438c-1.7910156,5.6132813-5.0947266,10.4863281-9.9130859,14.6191406
		l-3.9433594-3.0830078c4.3085938-3.0712891,7.3916016-7.5693359,9.2480469-13.4912109
		c0.8388672-2.8291016,1.4033203-7.4804688,1.6904297-13.9560547c0.2207031-5.0166016,0.3320313-12.7949219,0.3320313-23.3359375
		H364.4316406z M378.8847656,214.5263672c7.359375-4.9941406,13.2373047-12.7734375,17.6347656-23.3369141L400,195.7314453
		c-5.7460938,11.7792969-13.5351563,20.6503906-23.3691406,26.6181641l-2.9169922-1.5253906v-52.8056641h5.1708984V214.5263672z"/>
</g>
</svg>
